<?xml version="1.0" standalone="no"?>
<!DOCTYPE svg PUBLIC "-//W3C//DTD SVG 20010904//EN"
 "http://www.w3.org/TR/2001/REC-SVG-20010904/DTD/svg10.dtd">
<svg version="1.0" xmlns="http://www.w3.org/2000/svg"
 width="1125.000000pt" height="1125.000000pt" viewBox="0 0 1125.000000 1125.000000"
 preserveAspectRatio="xMidYMid meet">
<metadata>
Created by potrace 1.11, written by Peter Selinger 2001-2013
</metadata>
<g transform="translate(0.000000,1125.000000) scale(0.100000,-0.100000)"
fill="#000000" stroke="none">
<path d="M4943 9198 l-208 -412 -65 -18 c-144 -41 -333 -117 -495 -199 l-170
-85 -438 145 -437 146 -332 -332 -332 -332 142 -433 c78 -238 142 -439 142
-446 0 -7 -29 -71 -65 -142 -83 -166 -126 -270 -189 -454 l-51 -149 -405 -196
-405 -197 -3 -470 -2 -469 409 -205 409 -204 37 -115 c51 -159 113 -308 197
-475 l71 -140 -145 -437 -145 -437 334 -335 335 -334 437 145 437 146 155 -76
c172 -85 334 -150 487 -198 l103 -32 201 -409 201 -409 471 0 471 0 205 409
204 409 115 37 c159 51 308 113 475 197 l140 71 437 -145 437 -145 335 334
334 335 -145 437 -146 437 76 155 c85 172 150 334 198 487 l32 103 409 204
409 205 0 468 0 467 -408 194 c-224 107 -412 199 -418 205 -6 6 -18 38 -28 71
-40 140 -117 331 -196 490 l-86 170 146 438 145 437 -333 332 -332 333 -439
-146 -439 -147 -107 55 c-157 81 -321 149 -485 203 l-145 47 -65 129 c-36 71
-127 256 -202 412 l-137 282 -466 0 -465 0 -207 -412z m-502 -2164 c212 -63
359 -254 359 -468 0 -142 -45 -250 -147 -351 -104 -103 -234 -152 -374 -142
-131 10 -228 56 -322 152 -89 91 -137 208 -137 335 0 212 134 397 338 467 82
28 202 31 283 7z m2620 0 c212 -63 359 -254 359 -468 0 -142 -45 -250 -147
-351 -104 -103 -234 -152 -374 -142 -131 10 -228 56 -322 152 -89 91 -137 208
-137 335 0 212 134 397 338 467 82 28 202 31 283 7z m-1339 -755 c221 -47 388
-251 388 -473 0 -138 -45 -249 -141 -346 -196 -199 -497 -202 -692 -6 -100
101 -147 210 -147 346 0 135 47 245 146 344 119 120 284 169 446 135z m-1232
-354 c110 -18 293 -64 365 -93 l50 -20 11 -83 c21 -151 60 -252 143 -362 24
-32 42 -59 40 -61 -2 -1 -33 -13 -69 -26 -169 -59 -387 -183 -476 -270 l-52
-50 -586 0 -586 0 0 269 c0 174 4 280 11 302 19 56 57 98 133 146 187 121 477
228 691 256 75 10 238 6 325 -8z m2642 -4 c265 -46 532 -151 669 -264 104 -87
103 -84 107 -414 l3 -283 -592 0 -591 0 -44 49 c-75 83 -288 207 -459 267 -44
15 -82 29 -84 30 -1 1 11 20 27 41 87 109 137 228 156 372 l11 86 84 33 c241
95 479 123 713 83z m-1362 -756 c363 -48 729 -216 805 -368 25 -51 25 -52 25
-324 l0 -273 -980 0 -980 0 0 270 c0 300 1 308 65 379 114 125 475 279 742
316 130 17 197 17 323 0z"/>
</g>
</svg>
